<svg id="Capa_1" data-name="Capa 1" xmlns="http://www.w3.org/2000/svg" viewBox="0 0 300 300"><defs><style>.cls-1{fill:#f3c188;}.cls-2{fill:#ff661f;}.cls-3{fill:#fff;}</style></defs><title>iconos-nutre-meraki</title><circle class="cls-1" cx="150" cy="150" r="150"/><path class="cls-2" d="M167.8,135.31c-2,14.9-15,35.5-35.54,35.54-20.16,0-34.12-19.82-35.54-35.54-.61-6.67,1.11-15,11.66-31.66C129.94,69.61,133.93,57,135,57c.55,0,5,8.33,21.1,40C168.54,121.36,168.48,130.29,167.8,135.31Z"/><path class="cls-2" d="M218.84,185.77c-1.36,10.16-10.25,24.2-24.23,24.23-13.75,0-23.26-13.51-24.23-24.23-.42-4.55.75-10.22,8-21.58C193,141,195.74,132.38,196.5,132.38c.38,0,3.41,5.68,14.39,27.26C219.34,176.26,219.3,182.35,218.84,185.77Z"/><path class="cls-3" d="M125.14,150.24c6.49,6.43,15,6.11,14.86,8.76-.13,2.44-7.45,5-14,4a21.14,21.14,0,0,1-16.55-14.38c-3.38-11,3.92-22.79,6.92-22.39C119.61,126.68,115.83,141,125.14,150.24Z"/><path class="cls-3" d="M189.45,197.38c5,3.22,10.34,1.87,10.61,3.57s-4.06,4.17-8.35,4.42a13.7,13.7,0,0,1-12.43-6.9c-3.63-6.55-.58-15,1.38-15.14C182.77,183.18,182.3,192.77,189.45,197.38Z"/><polygon class="cls-2" points="141 208.74 145.33 217.51 155 218.91 148 225.74 149.65 235.37 141 230.82 132.35 235.37 134 225.74 127 218.91 136.67 217.51 141 208.74"/><polygon class="cls-2" points="198.43 75.69 202 82.94 210 84.1 204.22 89.74 205.58 97.7 198.43 93.94 191.28 97.7 192.64 89.74 186.86 84.1 194.85 82.94 198.43 75.69"/><polygon class="cls-2" points="69.72 139.36 73.56 147.14 82.14 148.39 75.93 154.45 77.39 163 69.72 158.96 62.03 163 63.5 154.45 57.29 148.39 65.87 147.14 69.72 139.36"/></svg>