<?xml version="1.0" encoding="utf-8"?>
<!-- Generator: Adobe Illustrator 22.0.0, SVG Export Plug-In . SVG Version: 6.00 Build 0)  -->
<svg version="1.1" id="Capa_1" xmlns="http://www.w3.org/2000/svg" xmlns:xlink="http://www.w3.org/1999/xlink" x="0px" y="0px"
	 viewBox="0 0 348.3 348.3" style="enable-background:new 0 0 348.3 348.3;" xml:space="preserve">
<style type="text/css">
	.st0{fill:#FF661F;}
</style>
<title>icono-cruz-meraki</title>
<path class="st0" d="M336.6,68.6L231,174.2l105.6,105.5c15.7,15.7,15.7,41.1,0,56.8c-15.7,15.7-41.1,15.7-56.8,0l0,0L174.2,231
	L68.6,336.6c-15.7,15.7-41.1,15.7-56.8,0s-15.7-41.1,0-56.8l105.5-105.5L11.8,68.6c-15.8-15.6-16.1-41-0.5-56.8s41-16.1,56.8-0.5
	c0.2,0.2,0.3,0.3,0.5,0.5l105.6,105.6L279.7,11.8c15.7-15.7,41.1-15.7,56.8,0S352.3,52.9,336.6,68.6z"/>
</svg>
