<svg id="Capa_1" data-name="Capa 1" xmlns="http://www.w3.org/2000/svg" viewBox="0 0 300 300"><defs><style>.cls-1{fill:#f3c188;}.cls-2{fill:#fff;}.cls-3{fill:#ff661f;}</style></defs><title>iconos-eco-meraki</title><circle class="cls-1" cx="150" cy="150" r="150"/><path class="cls-2" d="M128.07,157.36c17.62,25.52,24.31,67.24,16.6,76.26-4,4.64-49.9-9.51-71.28-30.66C41.84,171.74,52.62,119.73,38,107.32,25.74,96.84,102.32,120.07,128.07,157.36Z"/><path class="cls-3" d="M229.59,181.56c-13.21,33.15-48.9,66.16-62.46,64.53-7-.84-22.7-53.86-16.08-87.83,9.78-50.12,66.47-73,69.06-94.83C222.31,45,248.89,133.12,229.59,181.56Z"/><path class="cls-2" d="M183.68,193.26c-6.81,23.25-9.15,28.38-9.92,28.2-1.31-.31.77-16,4-29.22a270.91,270.91,0,0,1,28.08-71c7-13.25,8.89-15.76,9.35-15.56.87.4-3,10.94-9.92,29.48-3.67,9.86-6,15.84-8.38,22.06C193.55,165.79,189,178.07,183.68,193.26Z"/><path class="cls-3" d="M121.73,205.27c10.92,12.89,14.53,18.56,15.36,18.07,1.1-.66-3.48-11.62-10.06-22-1.15-1.81-4.53-7-16.36-20.22a331,331,0,0,0-27.91-28.37c-2.81-2.52-17.15-15.34-18.17-14.32-.86.86,8.55,11.67,25.16,30.65,4.29,4.91,5,5.57,20,22.51C119.62,202.8,120.59,203.92,121.73,205.27Z"/></svg>