<svg id="Capa_1" data-name="Capa 1" xmlns="http://www.w3.org/2000/svg" viewBox="0 0 300 300"><defs><style>.cls-1{fill:#f3c188;}.cls-2{fill:#ff661f;}.cls-3{fill:#fff;}</style></defs><title>iconos-vitaliza-meraki</title><circle class="cls-1" cx="150" cy="150" r="150"/><polygon class="cls-2" points="151.96 33.28 156.89 43.26 167.91 44.86 159.94 52.63 161.82 63.61 151.96 58.43 142.11 63.61 143.99 52.63 136.01 44.86 147.03 43.26 151.96 33.28"/><polygon class="cls-2" points="82.33 156.23 87.61 166.94 99.44 168.66 90.88 177 92.9 188.77 82.33 183.21 71.75 188.77 73.77 177 65.22 168.66 77.04 166.94 82.33 156.23"/><rect class="cls-2" x="96.33" y="162.5" width="163.34" height="28" transform="translate(176.94 -74.17) rotate(45)"/><rect class="cls-3" x="82.77" y="60.84" width="27.99" height="68.83" transform="translate(-39.01 96.32) rotate(-45)"/><polygon class="cls-2" points="244.72 136.03 248.29 143.28 256.29 144.44 250.5 150.08 251.87 158.04 244.72 154.28 237.57 158.04 238.93 150.08 233.15 144.44 241.14 143.28 244.72 136.03"/></svg>