<svg id="Capa_1" data-name="Capa 1" xmlns="http://www.w3.org/2000/svg" viewBox="0 0 300 300"><defs><style>.cls-1{fill:#f3c188;}.cls-2{fill:#ff661f;}.cls-3{fill:#fff;}</style></defs><title>iconos-suaviza-meraki</title><circle class="cls-1" cx="150" cy="150" r="150"/><path class="cls-2" d="M134.5,153h0s-21.55-9.15-22-8.12c-.4.83,13.55,7.1,22.2,16.08l6.43,6.74h0l-19.73-.38c-.07.55,6.06,1.56,17,5,5.67,1.79,6.93,2.44,8.16,3.74,4.18,4.43,4.67,12.88,4.61,12.65h0l27.08-14.46h0L177.28,199h0s6.79-11.08,16.42-13.09a45.82,45.82,0,0,1,10.45-.36h0l2.34,16.83h0s8.92-7.39,18.94-8.32a24.17,24.17,0,0,1,14.7,3.48c1.85,1.18,6.93,4.39,8.12,10.06a14.71,14.71,0,0,1-.38,6.58c-2.76,9.18-41.08,39-89.77,31-5.53-.91-47.16-7.76-57.17-33.18-2.83-7.16-7.59-27.1-7.59-27.1h0l-1,24.3h0L74.14,191.69h0L67.57,165h0L66,187.05h0s-6.21-10.54-17.8-30.18c-5.62-12-4.67-25.92,2.71-36.37C60.44,107.05,76,105.91,78,105.8c13.37-.75,23,6.59,29,11.22C124.8,130.6,134.5,153,134.5,153Z" transform="translate(-0.44 -0.26)"/><path class="cls-3" d="M163.52,211.81c-6.38-1.57-75.14-19.57-95.05-77.38-7.94-23.06-5.11-43.76-2.11-56.1H77.77c-3.34,11.85-7,32.19,0,55.33C94.46,189.21,156.67,209.67,163.52,211.81Z" transform="translate(-0.44 -0.26)"/><circle class="cls-2" cx="190.37" cy="137.39" r="17.59"/><path class="cls-3" d="M186,144c3.29,2.11,6.81,1.22,7,2.34s-2.67,2.75-5.5,2.92a9,9,0,0,1-8.19-4.55c-2.39-4.32-.38-9.88.91-10S181.25,141,186,144Z" transform="translate(-0.44 -0.26)"/><circle class="cls-2" cx="133.9" cy="73.58" r="28.57"/><path class="cls-3" d="M126.47,84.19c5.33,3.44,11.06,2,11.35,3.82.26,1.67-4.34,4.47-8.93,4.73a14.67,14.67,0,0,1-13.31-7.39c-3.89-7-.62-16,1.48-16.19C119.32,69,118.81,79.26,126.47,84.19Z" transform="translate(-0.44 -0.26)"/><circle class="cls-2" cx="209.32" cy="84.53" r="10.95"/><path class="cls-3" d="M207.11,89.48c2.23,1.44,4.63.83,4.75,1.59s-1.82,1.87-3.74,2A6.11,6.11,0,0,1,202.56,90c-1.63-2.94-.26-6.72.62-6.78S203.91,87.41,207.11,89.48Z" transform="translate(-0.44 -0.26)"/></svg>