<svg id="Capa_1" data-name="Capa 1" xmlns="http://www.w3.org/2000/svg" viewBox="0 0 200 200"><defs><style>.cls-1{fill:#ff6f48;}.cls-2{fill:#fff;}.cls-3{fill:#ffc8b3;}.cls-4{fill:#ffece6;}</style></defs><title>ilus_jabon</title><circle class="cls-1" cx="100" cy="100" r="100"/><path class="cls-2" d="M83.11,27.65c1.59,2.77,1.58,6.73.2,8.18-1,1-5.6,2.08-8.17.2-6.94-5.09-2.4-5.87-.2-8.18S79.25,20.93,83.11,27.65Z"/><circle class="cls-3" cx="85.51" cy="37.92" r="3.03"/><path class="cls-2" d="M95.46,35.28c-2.76,1.59-6.72,1.58-8.17.2-1-.95-2.09-5.6-.2-8.18,5.09-6.94,5.86-2.4,8.18-.2S102.19,31.41,95.46,35.28Z"/><path class="cls-2" d="M88.24,48c-1.59-2.77-1.58-6.73-.2-8.18.95-1,5.6-2.09,8.17-.2,6.94,5.09,2.41,5.87.2,8.18S92.1,54.73,88.24,48Z"/><path class="cls-2" d="M75.11,40.4c2.77-1.59,6.72-1.58,8.17-.2,1,.95,2.09,5.6.2,8.18-5.09,6.94-5.86,2.4-8.17.2S68.39,44.26,75.11,40.4Z"/><path class="cls-2" d="M159.88,63.55c-1.14,1.94-3.56,3.31-4.94,3-.94-.24-3.23-2.7-3-4.94.69-6,2.75-3.51,4.93-3S162.64,58.84,159.88,63.55Z"/><circle class="cls-3" cx="154.43" cy="68.6" r="2.13"/><path class="cls-2" d="M159.52,73.77c-1.94-1.14-3.31-3.56-3-4.93.23-1,2.7-3.24,4.93-3,6,.69,3.52,2.75,3,4.93S164.24,76.53,159.52,73.77Z"/><path class="cls-2" d="M149.21,73.79c1.14-1.94,3.56-3.31,4.93-3,1,.23,3.24,2.69,3,4.93-.69,6-2.75,3.51-4.93,3S146.45,78.5,149.21,73.79Z"/><path class="cls-2" d="M149.28,63.1c1.94,1.14,3.32,3.56,3,4.94-.24.94-2.7,3.23-4.94,3-6-.69-3.51-2.75-3-4.93S144.57,60.34,149.28,63.1Z"/><path class="cls-3" d="M54,97.41h84.29a0,0,0,0,1,0,0V146a12,12,0,0,1-12,12H66a12,12,0,0,1-12-12V97.41A0,0,0,0,1,54,97.41Z"/><path class="cls-4" d="M138.29,98.59c-4.56,3.17-11.64,7-20.41,7.11-8.09.08-9-3.13-17.12-4.15C83,99.31,72.68,112.87,61.24,108.07A15.59,15.59,0,0,1,54,101.55V64c2.66,6.88,6.91,15.7,11.85,15.52S71,69.93,78.37,64.78c9.37-6.55,17,3.31,39.51.74,15-1.72,17.61-6.8,18.32-8.77a11.8,11.8,0,0,0,.12-6.75l2,6.65Z"/><path class="cls-2" d="M52.87,120.62c-1.11,3.76-4.63,7.09-7.09,7.09-1.68,0-6.59-3.2-7.09-7.09-1.35-10.46,3.18-7.09,7.09-7.09S55.58,111.51,52.87,120.62Z"/><circle class="cls-3" cx="45.78" cy="131.43" r="3.71"/><path class="cls-2" d="M56.55,138c-3.75-1.11-7.09-4.63-7.09-7.09,0-1.69,3.21-6.59,7.09-7.09C67,122.51,63.64,127,63.64,131S65.67,140.74,56.55,138Z"/><path class="cls-2" d="M39.14,142.39c1.11-3.76,4.63-7.09,7.09-7.09,1.68,0,6.59,3.21,7.09,7.09,1.35,10.47-3.18,7.09-7.09,7.09S36.43,151.51,39.14,142.39Z"/><path class="cls-2" d="M34.78,124.3c3.76,1.11,7.1,4.63,7.1,7.09,0,1.69-3.21,6.59-7.1,7.09-10.46,1.35-7.09-3.17-7.09-7.09S25.67,121.6,34.78,124.3Z"/></svg>