<svg id="Capa_1" data-name="Capa 1" xmlns="http://www.w3.org/2000/svg" viewBox="0 0 200 200"><defs><style>.cls-1{fill:#ff6f48;}.cls-2{fill:#ffc8b3;}.cls-3{fill:#ffece6;}.cls-4{fill:#fff;}</style></defs><title>ilus_jabonvegano</title><circle class="cls-1" cx="100" cy="100" r="100"/><path class="cls-2" d="M43.89,88.88c2.51,3.32,4.6,10.2,4.13,10.63s-7.19-2.42-10.2-5.09C32.88,90.05,30,80.68,31,81.36,36.91,85.15,39.8,83.49,43.89,88.88Z"/><path class="cls-2" d="M31,94.78c3.7,1.14,9,5.39,8.88,6s-6.79,2.36-10.53,2c-6.12-.53-13.38-6.29-12.22-6.37C23.64,96,25,92.91,31,94.78Z"/><path class="cls-2" d="M42.37,111.5c2.92-3.1,5.84-9.84,5.42-10.31s-7.53,1.77-10.88,4.17c-5.5,3.94-9.52,13.1-8.39,12.52C34.89,114.61,37.61,116.56,42.37,111.5Z"/><path class="cls-2" d="M57.52,89.64c2.51,3.31,4.6,10.2,4.13,10.62s-7.19-2.42-10.2-5.08c-4.94-4.37-7.83-13.74-6.79-13.07C50.53,85.9,53.43,84.24,57.52,89.64Z"/><path class="cls-2" d="M56,112.26c2.92-3.1,5.84-9.84,5.42-10.31s-7.53,1.76-10.88,4.16c-5.5,3.94-9.52,13.11-8.39,12.53C48.52,115.37,51.24,117.31,56,112.26Z"/><path class="cls-2" d="M100.63,60.61c-4.09.77-11.18-.43-11.35-1s5.37-5.36,9.1-6.87c6.11-2.47,15.79-.88,14.72-.25C107.09,56,107.28,59.35,100.63,60.61Z"/><path class="cls-2" d="M101.11,46.43c-2.68,2.81-8.84,5.66-9.34,5.27s.91-7.13,2.86-10.33c3.21-5.25,11.59-9.18,11.16-8.11C103.31,39.32,105.46,41.86,101.11,46.43Z"/><path class="cls-2" d="M81.06,49.16c1.48,4,6.2,9.62,6.81,9.45S89.65,51.09,89,47c-1.07-6.67-7.48-14.36-7.47-13.09C81.61,41.07,78.66,42.65,81.06,49.16Z"/><path class="cls-2" d="M93.88,72.47c-4.09.77-11.18-.43-11.35-1s5.37-5.35,9.1-6.86c6.11-2.48,15.79-.89,14.72-.26C100.34,67.88,100.53,71.22,93.88,72.47Z"/><path class="cls-2" d="M74.31,61c1.47,4,6.2,9.62,6.81,9.46S82.9,63,82.24,58.88c-1.07-6.68-7.48-14.37-7.47-13.1C74.86,52.94,71.91,54.51,74.31,61Z"/><path class="cls-2" d="M150.64,145.28H68.78a14.58,14.58,0,0,1-6.6-2.74c-2-1.56-3.09-3.29-5.09-6.61A27.71,27.71,0,0,1,54,129.69a21.54,21.54,0,0,1-.78-9.35l6.24-28.85a9.38,9.38,0,0,1,9.35-9.35l81.86-7A47.22,47.22,0,0,1,160,91.49v44.44A9.38,9.38,0,0,1,150.64,145.28Z"/><rect class="cls-3" x="53.19" y="72" width="100.57" height="63.15" rx="12" ry="12"/><path class="cls-4" d="M90.06,73.4c-3.48,4.29-9.88,6.74-13.08,5.41-2.2-.92-6.85-7.75-5.41-13.08,3.91-14.37,8-7.52,13.08-5.41S98.51,63,90.06,73.4Z"/><circle class="cls-2" cx="74.97" cy="83.65" r="5.24"/><path class="cls-4" d="M85.43,98.09C81.14,94.61,78.69,88.21,80,85c.92-2.2,7.75-6.85,13.08-5.41,14.37,3.91,7.53,8,5.41,13.08S95.85,106.54,85.43,98.09Z"/><path class="cls-4" d="M60.38,94.34c3.48-4.29,9.87-6.74,13.07-5.41,2.21.92,6.86,7.75,5.41,13.08-3.9,14.38-8,7.53-13.08,5.41S51.92,104.76,60.38,94.34Z"/><path class="cls-4" d="M64.49,68.41c4.29,3.48,6.74,9.87,5.41,13.08-.92,2.2-7.75,6.85-13.08,5.4-14.37-3.9-7.53-8-5.41-13.08S54.07,60,64.49,68.41Z"/></svg>