<?xml version="1.0" encoding="utf-8"?>
<!-- Generator: Adobe Illustrator 22.0.0, SVG Export Plug-In . SVG Version: 6.00 Build 0)  -->
<svg version="1.1" id="Capa_1" xmlns="http://www.w3.org/2000/svg" xmlns:xlink="http://www.w3.org/1999/xlink" x="0px" y="0px"
	 viewBox="0 0 360 224.5" style="enable-background:new 0 0 360 224.5;" xml:space="preserve">
<style type="text/css">
	.st0{fill:#794100;}
	.st1{fill:#FF7676;}
	.st2{fill:#FFB69F;}
	.st3{fill:#FFC8B3;}
	.st4{fill:#FF8431;}
	.st5{fill:#FFE5B6;}
</style>
<g>
	<path class="st0" d="M131.5,169.2c0,0.4-0.2,0.8-0.5,1.1c-0.3,0.3-0.7,0.5-1.1,0.5h-8.3c-0.4,0-0.8,0.2-1.1,0.5
		c-0.3,0.3-0.5,0.7-0.5,1.1v21.3c0,0.9-0.1,1.6-0.4,2.1c-0.3,0.5-0.9,0.9-1.8,1.1c-0.7,0.2-1.8,0.6-3.4,1.1c-1.6,0.5-3.2,1-4.9,1.6
		c-1.7,0.6-3.4,1.1-4.9,1.6c-1.6,0.5-2.8,0.9-3.6,1.2c-1.8,0.6-2.6,0-2.6-1.8v-28.2c0-0.4-0.2-0.8-0.5-1.1c-0.3-0.3-0.7-0.5-1.1-0.5
		H50.5c-1.2,0-2-0.3-2.4-1c-0.4-0.7-0.1-1.5,0.8-2.5c0.2-0.2,1.3-1.3,3.2-3.4c1.9-2,4.3-4.7,7.3-7.9c3-3.2,6.4-6.9,10.1-11
		c3.8-4.1,7.7-8.3,11.7-12.6c4-4.3,7.9-8.6,11.8-12.8c3.9-4.2,7.4-8,10.6-11.5c3.2-3.4,5.9-6.4,8.1-8.7c2.2-2.4,3.6-3.9,4.2-4.5
		c0.5-0.5,1-0.9,1.4-1c0.5-0.1,0.9-0.1,1.3,0.1c0.4,0.2,0.7,0.4,0.9,0.8c0.2,0.4,0.4,0.8,0.4,1.2v58.5c0,0.4,0.2,0.8,0.5,1.1
		c0.3,0.3,0.7,0.5,1.1,0.5h8.3c0.4,0,0.8,0.2,1.1,0.5c0.3,0.3,0.5,0.7,0.5,1.1V169.2z M98.3,123.5c0-0.6-0.2-0.9-0.6-1
		c-0.4-0.1-0.7,0.1-1.1,0.5c-0.1,0.1-0.9,0.9-2.3,2.5c-1.4,1.6-3.2,3.5-5.3,5.8c-2.1,2.3-4.4,4.8-6.8,7.4c-2.4,2.6-4.7,5.1-6.9,7.4
		c-2.1,2.3-3.9,4.3-5.4,5.9c-1.5,1.6-2.3,2.5-2.4,2.6c-0.5,0.5-0.6,1-0.4,1.3c0.2,0.3,0.6,0.5,1,0.5h28.6c0.4,0,0.8-0.2,1.1-0.5
		c0.3-0.3,0.5-0.7,0.5-1.1V123.5z"/>
	<path class="st0" d="M308,169.2c0,0.4-0.2,0.8-0.5,1.1c-0.3,0.3-0.7,0.5-1.1,0.5h-8.3c-0.4,0-0.8,0.2-1.1,0.5
		c-0.3,0.3-0.5,0.7-0.5,1.1v21.3c0,0.9-0.1,1.6-0.4,2.1c-0.3,0.5-0.9,0.9-1.8,1.1c-0.7,0.2-1.8,0.6-3.4,1.1c-1.6,0.5-3.2,1-4.9,1.6
		c-1.7,0.6-3.4,1.1-4.9,1.6c-1.6,0.5-2.8,0.9-3.6,1.2c-1.8,0.6-2.6,0-2.6-1.8v-28.2c0-0.4-0.2-0.8-0.5-1.1c-0.3-0.3-0.7-0.5-1.1-0.5
		H227c-1.2,0-2-0.3-2.4-1c-0.4-0.7-0.1-1.5,0.8-2.5c0.2-0.2,1.3-1.3,3.2-3.4c1.9-2,4.3-4.7,7.3-7.9c3-3.2,6.4-6.9,10.1-11
		c3.8-4.1,7.7-8.3,11.7-12.6c4-4.3,7.9-8.6,11.8-12.8c3.9-4.2,7.4-8,10.6-11.5c3.2-3.4,5.9-6.4,8.1-8.7c2.2-2.4,3.6-3.9,4.2-4.5
		c0.5-0.5,1-0.9,1.4-1c0.5-0.1,0.9-0.1,1.3,0.1c0.4,0.2,0.7,0.4,0.9,0.8c0.2,0.4,0.4,0.8,0.4,1.2v58.5c0,0.4,0.2,0.8,0.5,1.1
		c0.3,0.3,0.7,0.5,1.1,0.5h8.3c0.4,0,0.8,0.2,1.1,0.5c0.3,0.3,0.5,0.7,0.5,1.1V169.2z M274.8,123.5c0-0.6-0.2-0.9-0.6-1
		c-0.4-0.1-0.7,0.1-1.1,0.5c-0.1,0.1-0.9,0.9-2.3,2.5c-1.4,1.6-3.2,3.5-5.3,5.8c-2.1,2.3-4.4,4.8-6.8,7.4c-2.4,2.6-4.7,5.1-6.9,7.4
		c-2.1,2.3-3.9,4.3-5.4,5.9c-1.5,1.6-2.3,2.5-2.4,2.6c-0.5,0.5-0.6,1-0.4,1.3c0.2,0.3,0.6,0.5,1,0.5h28.6c0.4,0,0.8-0.2,1.1-0.5
		c0.3-0.3,0.5-0.7,0.5-1.1V123.5z"/>
</g>
<path class="st1" d="M225,142c0.6,22.2-21,39.6-42.5,39.7c-21.5,0-43.2-17.3-42.6-39.7c0.6-22.5,23.5-38.3,44.7-37.3
	C204,105.6,224.4,121,225,142z"/>
<path class="st1" d="M212.6,153.1h-60.5c-6.8,0-12.3-5.5-12.3-12.3v-14.4c0-14.2,11.6-25.8,25.8-25.8h33.6
	c14.2,0,25.8,11.6,25.8,25.8v14.4C224.9,147.6,219.4,153.1,212.6,153.1z"/>
<g>
	<path class="st2" d="M141.6,189.8c4.2,0.2,10.9,3.1,10.9,3.8c0,0.6-6.6,4-10.6,4.5c-6.6,0.9-15.7-3-14.5-3.3
		C134.1,192.7,134.7,189.4,141.6,189.8z"/>
	<path class="st2" d="M137.7,203.6c3.3-2.1,10.1-3.4,10.5-2.9c0.4,0.5-2.6,6.8-5.3,9.5c-4.4,4.4-13.6,6.2-12.9,5.3
		C133.8,210.1,132.3,207.1,137.7,203.6z"/>
	<path class="st2" d="M158,205.8c-0.5-4.3-3.8-11-4.4-11c-0.6,0-3.6,7-3.9,11.1c-0.6,6.8,3.9,15.9,4.2,14.7
		C155.5,213.6,158.8,212.8,158,205.8z"/>
	<path class="st2" d="M151.1,179.8c4.2,0.2,10.9,3.1,10.9,3.8c0,0.6-6.6,4-10.6,4.5c-6.6,0.9-15.7-3-14.5-3.3
		C143.6,182.7,144.3,179.4,151.1,179.8z"/>
	<path class="st2" d="M167.6,195.8c-0.5-4.3-3.8-11-4.4-11c-0.6,0-3.6,7-3.9,11.1c-0.6,6.8,3.9,15.9,4.2,14.7
		C165.1,203.6,168.3,202.8,167.6,195.8z"/>
</g>
<g>
	<path class="st2" d="M251.9,110.1c-4-1.4-9.6-6.1-9.4-6.7s7.4-2,11.5-1.4c6.6,0.9,14.3,7.3,13,7.3
		C259.9,109.4,258.4,112.4,251.9,110.1z"/>
	<path class="st2" d="M259.6,97.9c-3.8,1.1-10.6,0.5-10.9-0.1c-0.2-0.6,4.4-5.8,7.8-7.6c5.5-3,14.8-2.1,13.9-1.4
		C265.1,92.8,265.7,96.1,259.6,97.9z"/>
	<path class="st2" d="M240.6,90.1c-0.7,4.3,0.5,11.6,1.2,11.8c0.6,0.2,5.4-5.7,6.9-9.6c2.5-6.4,0.8-16.4,0.1-15.3
		C245.2,83.3,241.8,83.2,240.6,90.1z"/>
	<path class="st2" d="M240,117.1c-4-1.4-9.6-6.1-9.4-6.7s7.4-2,11.5-1.4c6.6,0.9,14.3,7.3,13,7.3C248,116.3,246.5,119.3,240,117.1z"
		/>
	<path class="st2" d="M228.7,97.1c-0.7,4.3,0.5,11.6,1.2,11.8c0.6,0.2,5.4-5.7,6.9-9.6c2.5-6.4,0.8-16.4,0.1-15.3
		C233.3,90.3,229.9,90.1,228.7,97.1z"/>
</g>
<g>
	<path class="st3" d="M95.8,7.6c1.6,2.8,1.6,6.8,0.2,8.3c-1,1-5.7,2.1-8.3,0.2c-7-5.2-2.4-5.9-0.2-8.3C89.7,5.5,91.8,0.8,95.8,7.6z"
		/>
	<circle class="st4" cx="98.2" cy="18" r="3.1"/>
	<path class="st3" d="M108.3,15.3c-2.8,1.6-6.8,1.6-8.3,0.2c-1-1-2.1-5.7-0.2-8.3c5.2-7,5.9-2.4,8.3-0.2S115.1,11.4,108.3,15.3z"/>
	<path class="st3" d="M101,28.2c-1.6-2.8-1.6-6.8-0.2-8.3c1-1,5.7-2.1,8.3-0.2c7,5.2,2.4,5.9,0.2,8.3C107,30.4,104.9,35,101,28.2z"
		/>
	<path class="st3" d="M87.6,20.5c2.8-1.6,6.8-1.6,8.3-0.2c1,1,2.1,5.7,0.2,8.3c-5.2,7-5.9,2.4-8.3,0.2S80.8,24.4,87.6,20.5z"/>
</g>
<g>
	<path class="st3" d="M230.9,51.6c-1.2,2-3.6,3.4-5,3c-1-0.2-3.3-2.7-3-5c0.7-6.1,2.8-3.6,5-3C230.1,47.1,233.7,46.8,230.9,51.6z"/>
	<circle class="st4" cx="225.4" cy="56.7" r="2.2"/>
	<path class="st3" d="M230.6,61.9c-2-1.2-3.4-3.6-3-5c0.2-1,2.7-3.3,5-3c6.1,0.7,3.6,2.8,3,5C235,61.1,235.3,64.7,230.6,61.9z"/>
	<path class="st3" d="M220.1,61.9c1.2-2,3.6-3.4,5-3c1,0.2,3.3,2.7,3,5c-0.7,6.1-2.8,3.6-5,3C220.9,66.4,217.3,66.7,220.1,61.9z"/>
	<path class="st3" d="M220.2,51.1c2,1.2,3.4,3.6,3,5c-0.2,1-2.7,3.3-5,3c-6.1-0.7-3.6-2.8-3-5C215.7,51.9,215.4,48.3,220.2,51.1z"/>
</g>
<g>
	<path class="st3" d="M88.3,83c-1.1,3.8-4.7,7.2-7.2,7.2c-1.7,0-6.7-3.2-7.2-7.2c-1.4-10.6,3.2-7.2,7.2-7.2S91,73.8,88.3,83z"/>
	<circle class="st4" cx="81.1" cy="93.9" r="3.8"/>
	<path class="st3" d="M92,100.6c-3.8-1.1-7.2-4.7-7.2-7.2c0-1.7,3.2-6.7,7.2-7.2c10.6-1.4,7.2,3.2,7.2,7.2
		C99.2,97.4,101.3,103.4,92,100.6z"/>
	<path class="st3" d="M74.4,105.1c1.1-3.8,4.7-7.2,7.2-7.2c1.7,0,6.7,3.2,7.2,7.2c1.4,10.6-3.2,7.2-7.2,7.2S71.6,114.3,74.4,105.1z"
		/>
	<path class="st3" d="M70,86.7c3.8,1.1,7.2,4.7,7.2,7.2c0,1.7-3.2,6.7-7.2,7.2c-10.6,1.4-7.2-3.2-7.2-7.2S60.7,84,70,86.7z"/>
</g>
<path class="st5" d="M224.9,114.7c0.6,22.2-21,39.6-42.5,39.7c-21.5,0-43.2-17.3-42.6-39.7c0.6-22.5,23.5-38.3,44.6-37.3
	C204,78.2,224.3,93.6,224.9,114.7z"/>
<g>
	<path class="st1" d="M180.8,60.7c-3.4,7.5-13.4,17.7-14.6,17.3s-2.6-14.8-0.8-22.6c2.9-12.8,16.5-26.7,16.3-24.3
		C180.7,45,186.3,48.4,180.8,60.7z"/>
	<path class="st1" d="M158.3,43.8c1.5,7.5-0.8,20.8-2,21.2c-1.2,0.4-10.6-9.6-13.6-16.4c-4.9-11.2-1.8-29.3-0.5-27.4
		C149.2,32.1,155.8,31.5,158.3,43.8z"/>
	<path class="st1" d="M139.9,79.6c8.2,2.1,22.7,0.8,23.1-0.4c0.4-1.2-10.2-11.4-17.6-15c-12.1-5.8-31.9-4.1-29.8-2.7
		C127.4,69.5,126.6,76.1,139.9,79.6z"/>
	<path class="st1" d="M192.5,85.2c-3.4,7.5-13.4,17.7-14.6,17.3c-1.2-0.4-2.6-14.8-0.8-22.6c2.9-12.8,16.5-26.7,16.3-24.3
		C192.3,69.4,198,72.9,192.5,85.2z"/>
	<path class="st1" d="M151.6,104.1c8.2,2.1,22.7,0.8,23.1-0.4c0.4-1.2-10.2-11.4-17.6-15c-12.1-5.8-31.9-4.1-29.8-2.7
		C139,94,138.3,100.6,151.6,104.1z"/>
</g>
<g>
	<path class="st2" d="M191,102.4c-2.5,3.1-7.1,4.8-9.4,3.9c-1.6-0.7-4.9-5.6-3.9-9.4c2.8-10.3,5.7-5.4,9.4-3.9
		C190.8,94.5,197.1,94.9,191,102.4z"/>
	<circle class="st4" cx="180.2" cy="109.7" r="3.8"/>
	<path class="st2" d="M187.7,120.1c-3.1-2.5-4.8-7.1-3.9-9.4c0.7-1.6,5.6-4.9,9.4-3.9c10.3,2.8,5.4,5.7,3.9,9.4
		C195.6,119.9,195.2,126.1,187.7,120.1z"/>
	<path class="st2" d="M169.7,117.4c2.5-3.1,7.1-4.8,9.4-3.9c1.6,0.7,4.9,5.6,3.9,9.4c-2.8,10.3-5.7,5.4-9.4,3.9
		C170,125.3,163.7,124.9,169.7,117.4z"/>
	<path class="st2" d="M172.7,98.8c3.1,2.5,4.8,7.1,3.9,9.4c-0.7,1.6-5.6,4.9-9.4,3.9c-10.3-2.8-5.4-5.7-3.9-9.4
		S165.2,92.7,172.7,98.8z"/>
</g>
</svg>
