<svg id="Capa_1" data-name="Capa 1" xmlns="http://www.w3.org/2000/svg" viewBox="0 0 200 200"><defs><style>.cls-1{fill:#ff6f48;}.cls-2{fill:#ffc8b3;}.cls-3{fill:#ffece6;}</style></defs><title>ilus-shampoo</title><circle class="cls-1" cx="100" cy="100" r="100"/><ellipse class="cls-2" cx="100" cy="137.52" rx="42" ry="20.14"/><rect class="cls-2" x="58" y="96.67" width="84" height="51.78" rx="12" ry="12"/><ellipse class="cls-3" cx="100" cy="108.76" rx="42" ry="20.14"/><path class="cls-2" d="M102.5,61.23c-3.35,7.44-13.23,17.5-14.4,17.09S85.51,63.68,87.26,56c2.88-12.61,16.29-26.39,16.11-24C102.36,45.7,107.94,49.13,102.5,61.23Z"/><path class="cls-2" d="M80.24,44.56c1.51,7.45-.82,20.57-2,20.94S67.78,56,64.83,49.3c-4.84-11-1.76-28.94-.52-27C71.28,33.05,77.78,32.44,80.24,44.56Z"/><path class="cls-2" d="M62.14,79.86c8.09,2.12,22.42.82,22.84-.35S74.87,68.21,67.59,64.7C55.65,58.94,36.09,60.63,38.15,62,49.76,69.91,49,76.42,62.14,79.86Z"/><path class="cls-2" d="M114,85.39c-3.34,7.44-13.23,17.5-14.4,17.1S97,87.84,98.77,80.15c2.87-12.61,16.28-26.38,16.11-24C113.87,69.86,119.45,73.29,114,85.39Z"/><path class="cls-2" d="M73.64,104c8.09,2.11,22.43.81,22.85-.36s-10.11-11.3-17.4-14.81C67.15,83.1,47.6,84.79,49.66,86.19,61.26,94.07,60.48,100.58,73.64,104Z"/></svg>