<?xml version="1.0" encoding="utf-8"?>
<!-- Generator: Adobe Illustrator 22.0.0, SVG Export Plug-In . SVG Version: 6.00 Build 0)  -->
<svg version="1.1" id="Capa_1" xmlns="http://www.w3.org/2000/svg" xmlns:xlink="http://www.w3.org/1999/xlink" x="0px" y="0px"
	 viewBox="0 0 1280 493" style="enable-background:new 0 0 1280 493;" xml:space="preserve">
<style type="text/css">
	.st0{fill:#794100;}
	.st1{fill:#FF7676;}
	.st2{fill:#FFB69F;}
	.st3{fill:#FFC8B3;}
	.st4{fill:#FF8431;}
	.st5{fill:#FFE5B6;}
</style>
<g>
	<path class="st0" d="M551.6,360.4c0,0.8-0.3,1.5-0.9,2.1c-0.6,0.6-1.3,0.9-2.1,0.9h-15.8c-0.8,0-1.5,0.3-2.1,0.9
		c-0.6,0.6-0.9,1.3-0.9,2.1v40.4c0,1.7-0.3,3-0.8,4c-0.5,0.9-1.7,1.6-3.5,2.1c-1.3,0.4-3.5,1.1-6.4,2.1c-2.9,1-6,2-9.3,3
		c-3.2,1.1-6.4,2.1-9.4,3.1c-3,1-5.3,1.8-6.8,2.3c-3.4,1.1-5-0.1-5-3.5v-53.5c0-0.8-0.3-1.5-0.9-2.1c-0.6-0.6-1.3-0.9-2.1-0.9h-87.6
		c-2.2,0-3.7-0.6-4.5-1.9c-0.8-1.3-0.2-2.9,1.6-4.8c0.4-0.4,2.4-2.5,6-6.4c3.6-3.9,8.2-8.9,13.9-15c5.6-6.1,12.1-13.1,19.3-20.8
		c7.2-7.7,14.6-15.7,22.2-23.8c7.6-8.2,15-16.2,22.4-24.2c7.4-8,14.1-15.2,20.1-21.8c6-6.5,11.1-12.1,15.3-16.5
		c4.2-4.5,6.8-7.3,7.9-8.5c0.9-1,1.8-1.6,2.7-1.8c0.9-0.2,1.7-0.2,2.4,0.2c0.7,0.3,1.3,0.8,1.8,1.6s0.7,1.5,0.7,2.4v111
		c0,0.8,0.3,1.5,0.9,2.1c0.6,0.6,1.3,0.9,2.1,0.9h15.8c0.8,0,1.5,0.3,2.1,0.9c0.6,0.6,0.9,1.3,0.9,2.1V360.4z M488.5,273.6
		c0-1.1-0.4-1.7-1.1-1.8c-0.7-0.1-1.4,0.2-2.1,0.9c-0.2,0.2-1.7,1.8-4.4,4.7c-2.7,2.9-6.1,6.6-10.1,11c-4,4.4-8.3,9-12.9,14
		c-4.6,5-9,9.6-13,14c-4.1,4.4-7.5,8.1-10.3,11.1c-2.8,3-4.3,4.7-4.6,5c-0.9,1-1.1,1.9-0.7,2.5c0.5,0.7,1.1,1,1.9,1h54.4
		c0.8,0,1.5-0.3,2.1-0.9c0.6-0.6,0.9-1.3,0.9-2.1V273.6z"/>
	<path class="st0" d="M886.6,360.4c0,0.8-0.3,1.5-0.9,2.1c-0.6,0.6-1.3,0.9-2.1,0.9h-15.8c-0.8,0-1.5,0.3-2.1,0.9
		c-0.6,0.6-0.9,1.3-0.9,2.1v40.4c0,1.7-0.3,3-0.8,4c-0.5,0.9-1.7,1.6-3.5,2.1c-1.3,0.4-3.5,1.1-6.4,2.1c-2.9,1-6,2-9.3,3
		c-3.2,1.1-6.4,2.1-9.4,3.1c-3,1-5.3,1.8-6.8,2.3c-3.4,1.1-5-0.1-5-3.5v-53.5c0-0.8-0.3-1.5-0.9-2.1c-0.6-0.6-1.3-0.9-2.1-0.9H733
		c-2.2,0-3.7-0.6-4.5-1.9c-0.8-1.3-0.2-2.9,1.6-4.8c0.4-0.4,2.4-2.5,6-6.4c3.6-3.9,8.2-8.9,13.9-15c5.6-6.1,12.1-13.1,19.3-20.8
		c7.2-7.7,14.6-15.7,22.2-23.8c7.6-8.2,15-16.2,22.4-24.2c7.4-8,14.1-15.2,20.1-21.8c6-6.5,11.1-12.1,15.3-16.5
		c4.2-4.5,6.8-7.3,7.9-8.5c0.9-1,1.8-1.6,2.7-1.8c0.9-0.2,1.7-0.2,2.4,0.2c0.7,0.3,1.3,0.8,1.8,1.6s0.7,1.5,0.7,2.4v111
		c0,0.8,0.3,1.5,0.9,2.1c0.6,0.6,1.3,0.9,2.1,0.9h15.8c0.8,0,1.5,0.3,2.1,0.9c0.6,0.6,0.9,1.3,0.9,2.1V360.4z M823.6,273.6
		c0-1.1-0.4-1.7-1.1-1.8c-0.7-0.1-1.4,0.2-2.1,0.9c-0.2,0.2-1.7,1.8-4.4,4.7c-2.7,2.9-6.1,6.6-10.1,11c-4,4.4-8.3,9-12.9,14
		c-4.6,5-9,9.6-13,14c-4.1,4.4-7.5,8.1-10.3,11.1c-2.8,3-4.3,4.7-4.6,5c-0.9,1-1.1,1.9-0.7,2.5c0.5,0.7,1.1,1,1.9,1h54.4
		c0.8,0,1.5-0.3,2.1-0.9c0.6-0.6,0.9-1.3,0.9-2.1V273.6z"/>
</g>
<path class="st1" d="M729,308.9c1.2,42.1-39.9,75.2-80.7,75.3c-40.8,0.1-82.1-32.8-80.9-75.3c1.1-42.8,44.7-72.7,84.8-70.9
	C689.3,239.7,727.9,268.9,729,308.9z"/>
<path class="st1" d="M714.8,329.9H581.4c-7.7,0-14.1-6.3-14.1-14.1v-56c0-16.2,13.3-29.5,29.5-29.5h102.6
	c16.2,0,29.5,13.3,29.5,29.5v56C728.9,323.6,722.5,329.9,714.8,329.9z"/>
<g>
	<path class="st2" d="M570.7,399.5c8,0.4,20.7,6,20.7,7.2s-12.5,7.5-20.2,8.6c-12.6,1.8-29.9-5.6-27.6-6.3
		C556.5,405.1,557.7,398.8,570.7,399.5z"/>
	<path class="st2" d="M563.3,425.7c6.3-4,19.1-6.5,19.9-5.5c0.7,1-5,12.9-10.1,18c-8.4,8.3-25.9,11.8-24.6,10
		C555.9,438,553,432.3,563.3,425.7z"/>
	<path class="st2" d="M602,429.9c-0.9-8.2-7.1-20.8-8.4-20.8c-1.2,0-6.8,13.2-7.4,21.1c-1.1,13,7.3,30.3,7.9,27.9
		C597.2,444.7,603.4,443.2,602,429.9z"/>
	<path class="st2" d="M588.8,380.5c8,0.4,20.7,6,20.7,7.2c0,1.2-12.5,7.5-20.2,8.6c-12.6,1.8-29.9-5.6-27.6-6.3
		C574.6,386.1,575.8,379.7,588.8,380.5z"/>
	<path class="st2" d="M620,410.9c-0.9-8.2-7.1-20.8-8.4-20.8c-1.2,0-6.8,13.2-7.4,21.1c-1.1,13,7.3,30.3,7.9,27.9
		C615.3,425.7,621.5,424.1,620,410.9z"/>
</g>
<g>
	<path class="st2" d="M787.8,233c-7.5-2.7-18.2-11.5-17.9-12.7c0.3-1.2,14.1-3.7,21.8-2.6c12.6,1.8,27.1,13.8,24.7,13.8
		C803,231.7,800.1,237.4,787.8,233z"/>
	<path class="st2" d="M802.3,209.9c-7.2,2.1-20.2,0.9-20.6-0.3c-0.5-1.1,8.4-11,14.8-14.4c10.4-5.6,28.1-4.1,26.4-2.7
		C812.8,200.2,814,206.5,802.3,209.9z"/>
	<path class="st2" d="M766.3,195.1c-1.4,8.1,1,22,2.2,22.3c1.2,0.3,10.2-10.8,13.1-18.2c4.7-12.1,1.4-31.1,0.2-29
		C775.1,182.2,768.6,182,766.3,195.1z"/>
	<path class="st2" d="M765.1,246.2c-7.5-2.7-18.2-11.5-17.9-12.7s14.1-3.7,21.8-2.6c12.6,1.8,27.1,13.8,24.7,13.8
		C780.3,244.9,777.4,250.6,765.1,246.2z"/>
	<path class="st2" d="M743.6,208.3c-1.4,8.1,1,22,2.2,22.3c1.2,0.3,10.2-10.8,13.1-18.2c4.7-12.1,1.4-31.1,0.2-29
		C752.4,195.4,745.9,195.2,743.6,208.3z"/>
</g>
<g>
	<path class="st3" d="M483.8,53.7c3.1,5.3,3,12.9,0.4,15.7c-1.8,1.9-10.8,4-15.7,0.4c-13.3-9.8-4.6-11.3-0.4-15.7
		C472.3,49.6,476.3,40.7,483.8,53.7z"/>
	<circle class="st4" cx="488.4" cy="73.4" r="5.8"/>
	<path class="st3" d="M507.5,68.3c-5.3,3.1-12.9,3-15.7,0.4c-1.9-1.8-4-10.8-0.4-15.7c9.8-13.3,11.3-4.6,15.7-0.4
		S520.4,60.9,507.5,68.3z"/>
	<path class="st3" d="M493.6,92.8c-3.1-5.3-3-12.9-0.4-15.7c1.8-1.9,10.8-4,15.7-0.4c13.3,9.8,4.6,11.3,0.4,15.7
		C505.1,96.9,501,105.7,493.6,92.8z"/>
	<path class="st3" d="M468.4,78.2c5.3-3.1,12.9-3,15.7-0.4c1.9,1.8,4,10.8,0.4,15.7c-9.8,13.3-11.3,4.6-15.7,0.4
		C464.3,89.7,455.4,85.6,468.4,78.2z"/>
</g>
<g>
	<path class="st3" d="M740.3,137.1c-2.2,3.7-6.9,6.4-9.5,5.7c-1.8-0.4-6.2-5.2-5.7-9.5c1.3-11.6,5.3-6.8,9.5-5.7
		C738.8,128.6,745.6,128,740.3,137.1z"/>
	<circle class="st4" cx="729.8" cy="146.8" r="4.1"/>
	<path class="st3" d="M739.6,156.7c-3.7-2.2-6.4-6.9-5.7-9.5c0.4-1.8,5.2-6.2,9.5-5.7c11.6,1.3,6.8,5.3,5.7,9.5
		C748.1,155.2,748.7,162.1,739.6,156.7z"/>
	<path class="st3" d="M719.8,156.8c2.2-3.7,6.9-6.4,9.5-5.7c1.8,0.4,6.2,5.2,5.7,9.5c-1.3,11.6-5.3,6.8-9.5,5.7
		C721.3,165.2,714.5,165.9,719.8,156.8z"/>
	<path class="st3" d="M719.9,136.2c3.7,2.2,6.4,6.9,5.7,9.5c-0.4,1.8-5.2,6.2-9.5,5.7c-11.6-1.3-6.8-5.3-5.7-9.5
		C711.5,137.8,710.9,130.9,719.9,136.2z"/>
</g>
<g>
	<path class="st3" d="M469.6,196.8c-2.1,7.2-8.9,13.6-13.6,13.6c-3.2,0-12.7-6.2-13.6-13.6c-2.6-20.1,6.1-13.6,13.6-13.6
		S474.8,179.2,469.6,196.8z"/>
	<circle class="st4" cx="456" cy="217.6" r="7.1"/>
	<path class="st3" d="M476.7,230.3c-7.2-2.1-13.6-8.9-13.6-13.6c0-3.2,6.2-12.7,13.6-13.6c20.1-2.6,13.6,6.1,13.6,13.6
		C490.3,224.2,494.2,235.5,476.7,230.3z"/>
	<path class="st3" d="M443.2,238.6c2.1-7.2,8.9-13.6,13.6-13.6c3.2,0,12.7,6.2,13.6,13.6c2.6,20.1-6.1,13.6-13.6,13.6
		S438,256.2,443.2,238.6z"/>
	<path class="st3" d="M434.8,203.8c7.2,2.1,13.6,8.9,13.6,13.6c0,3.2-6.2,12.7-13.6,13.6c-20.1,2.6-13.6-6.1-13.6-13.6
		S417.3,198.7,434.8,203.8z"/>
</g>
<path class="st5" d="M728.9,256.9c1.2,42.1-39.8,75.2-80.6,75.3c-40.8,0.1-82-32.8-80.9-75.3c1.1-42.8,44.6-72.7,84.7-70.9
	C689.2,187.7,727.8,216.9,728.9,256.9z"/>
<g>
	<path class="st1" d="M645.2,154.4c-6.4,14.3-25.4,33.6-27.7,32.9s-5-28.2-1.6-43c5.5-24.2,31.3-50.7,31-46.1
		C645,124.6,655.7,131.2,645.2,154.4z"/>
	<path class="st1" d="M602.4,122.4c2.9,14.3-1.6,39.6-3.8,40.3c-2.3,0.7-20.1-18.2-25.8-31.2c-9.3-21.2-3.4-55.7-1-52
		C585.2,100.2,597.7,99.1,602.4,122.4z"/>
	<path class="st1" d="M567.6,190.3c15.6,4.1,43.1,1.6,43.9-0.7s-19.4-21.7-33.5-28.5c-23-11.1-60.6-7.8-56.6-5.1
		C543.8,171.1,542.3,183.7,567.6,190.3z"/>
	<path class="st1" d="M667.3,200.9c-6.4,14.3-25.4,33.6-27.7,32.9c-2.3-0.8-5-28.2-1.6-43c5.5-24.2,31.3-50.7,31-46.1
		C667.1,171,677.8,177.6,667.3,200.9z"/>
	<path class="st1" d="M589.7,236.7c15.6,4.1,43.1,1.6,43.9-0.7c0.8-2.2-19.4-21.7-33.5-28.5c-23-11.1-60.6-7.8-56.6-5.1
		C565.9,217.6,564.4,230.1,589.7,236.7z"/>
</g>
<g>
	<path class="st2" d="M664.6,233.6c-4.7,5.8-13.4,9.2-17.8,7.4c-3-1.2-9.3-10.5-7.4-17.8c5.3-19.6,10.9-10.2,17.8-7.4
		S676.1,219.4,664.6,233.6z"/>
	<circle class="st4" cx="644" cy="247.5" r="7.1"/>
	<path class="st2" d="M658.3,267.2c-5.8-4.7-9.2-13.4-7.4-17.8c1.2-3,10.5-9.3,17.8-7.4c19.6,5.3,10.2,10.8,7.4,17.8
		C673.2,266.8,672.4,278.7,658.3,267.2z"/>
	<path class="st2" d="M624.2,262.1c4.7-5.8,13.4-9.2,17.8-7.4c3,1.2,9.3,10.5,7.4,17.8c-5.3,19.6-10.9,10.2-17.8,7.4
		C624.6,277,612.7,276.3,624.2,262.1z"/>
	<path class="st2" d="M629.8,226.8c5.8,4.7,9.2,13.4,7.4,17.8c-1.2,3-10.5,9.3-17.8,7.4c-19.6-5.3-10.2-10.9-7.4-17.8
		S615.6,215.3,629.8,226.8z"/>
</g>
</svg>
